<svg width="22" height="21" viewBox="0 0 22 21" fill="none" xmlns="http://www.w3.org/2000/svg">
<path d="M2.33334 4.24992V18.8333H17.5V20.9166H1.25001C0.600005 20.9166 0.166672 20.4999 0.166672 19.8749V4.24992H2.33334ZM11.1083 9.04159L9.05 7.16659L11.8667 6.74992L13.1667 4.24992L14.4667 6.74992L17.2833 7.16659L15.225 9.14575L15.6583 11.8541L13.1667 10.4999L10.5667 11.7499L11.1083 9.04159ZM6.66667 0.083252H19.6667C20.2413 0.083252 20.7924 0.302745 21.1987 0.693446C21.6051 1.08415 21.8333 1.61405 21.8333 2.16659V14.6666C21.8333 15.8228 20.8692 16.7499 19.6667 16.7499H6.66667C6.09204 16.7499 5.54094 16.5304 5.13461 16.1397C4.72828 15.749 4.5 15.2191 4.5 14.6666V2.16659C4.5 1.02075 5.475 0.083252 6.66667 0.083252ZM6.66667 2.16659V14.6666H19.6667V2.16659H6.66667Z" fill="black"/>
</svg>
