<svg width="18" height="16" viewBox="0 0 18 16" fill="none" xmlns="http://www.w3.org/2000/svg">
<path d="M13.635 15.1699C13.4999 15.1696 13.3669 15.1397 13.2475 15.0829L9 13.0729L4.7525 15.0829C4.61497 15.1478 4.46004 15.1767 4.30519 15.1666C4.15034 15.1564 4.00172 15.1075 3.87609 15.0254C3.75047 14.9433 3.65282 14.8312 3.59417 14.7019C3.53553 14.5725 3.51821 14.4309 3.54417 14.2932L4.355 10.0362L0.918333 7.02116C0.807157 6.92346 0.728544 6.79974 0.69137 6.66396C0.654195 6.52818 0.65994 6.38575 0.707956 6.25276C0.755971 6.11976 0.844345 6.00149 0.963098 5.91131C1.08185 5.82113 1.22625 5.76263 1.38 5.74241L6.12917 5.12141L8.25333 1.24841C8.32985 1.13129 8.43904 1.03419 8.57007 0.966723C8.70111 0.899259 8.84945 0.86377 9.00042 0.86377C9.15138 0.86377 9.29972 0.899259 9.43076 0.966723C9.5618 1.03419 9.67098 1.13129 9.7475 1.24841L11.8708 5.12141L16.62 5.74241C16.7737 5.76263 16.9181 5.82113 17.0369 5.91131C17.1557 6.00149 17.244 6.11976 17.292 6.25276C17.3401 6.38575 17.3458 6.52818 17.3086 6.66396C17.2715 6.79974 17.1928 6.92346 17.0817 7.02116L13.645 10.0362L14.4567 14.2932C14.4772 14.4008 14.4713 14.5111 14.4395 14.6165C14.4077 14.7218 14.3508 14.8197 14.2726 14.9032C14.1944 14.9867 14.0969 15.0538 13.987 15.0999C13.877 15.1459 13.7563 15.1698 13.635 15.1699Z" fill="#FBC400"/>
</svg>
