<svg width="20" height="17" viewBox="0 0 20 17" fill="none" xmlns="http://www.w3.org/2000/svg">
<path d="M10 0.1875C10.1702 0.187587 10.337 0.232898 10.4817 0.318358C10.6265 0.403819 10.7434 0.526054 10.8195 0.671375L13.1845 5.18463L18.382 5.90562C18.5513 5.92909 18.7104 5.99732 18.8412 6.10259C18.972 6.20786 19.0693 6.34597 19.1221 6.50129C19.175 6.65661 19.1812 6.82295 19.1402 6.98149C19.0991 7.14003 19.0124 7.28443 18.8898 7.39838L15.1067 10.9194L15.9574 15.8841C15.9847 16.0448 15.9646 16.2097 15.8991 16.36C15.8337 16.5104 15.7256 16.6403 15.587 16.7353C15.4484 16.8302 15.2848 16.8863 15.1146 16.8973C14.9444 16.9083 14.7744 16.8738 14.6237 16.7976L10 14.4561L5.37633 16.7976C5.22558 16.8738 5.05556 16.9083 4.88537 16.8973C4.71519 16.8863 4.5516 16.8302 4.41301 16.7353C4.27442 16.6403 4.16632 16.5104 4.10088 16.36C4.03544 16.2097 4.01525 16.0448 4.04258 15.8841L4.89325 10.9194L1.11017 7.39838C0.987607 7.28443 0.900897 7.14003 0.859847 6.98149C0.818797 6.82295 0.825046 6.65661 0.877887 6.50129C0.930728 6.34597 1.02805 6.20786 1.15885 6.10259C1.28964 5.99732 1.44869 5.92909 1.618 5.90562L6.8155 5.18463L9.1805 0.671375C9.25658 0.526054 9.37353 0.403819 9.51827 0.318358C9.66301 0.232898 9.82981 0.187587 10 0.1875ZM10 3.019L8.24183 6.3755C8.17585 6.50173 8.07887 6.61086 7.95916 6.69359C7.83946 6.77632 7.70057 6.8302 7.55433 6.85063L3.719 7.38262L6.51483 9.984C6.62049 10.0823 6.69974 10.2034 6.74586 10.3372C6.79199 10.4709 6.80361 10.6133 6.77975 10.7523L6.15 14.4246L9.57008 12.6921C9.70248 12.625 9.8501 12.5899 10 12.5899C10.1499 12.5899 10.2975 12.625 10.4299 12.6921L13.85 14.4246L13.2203 10.7523C13.1965 10.6134 13.2082 10.4712 13.2544 10.3376C13.3005 10.204 13.3797 10.083 13.4852 9.98487L16.281 7.38262L12.4466 6.85063C12.3004 6.8302 12.1615 6.77632 12.0418 6.69359C11.922 6.61086 11.8251 6.50173 11.7591 6.3755L10 3.019Z" fill="black"/>
</svg>
