<svg width="28" height="25" viewBox="0 0 28 25" fill="none" xmlns="http://www.w3.org/2000/svg">
<path d="M12.75 24.1666H7.125C5.225 24.1666 3.60417 23.4034 2.2625 21.877C0.920833 20.3409 0.25 18.4694 0.25 16.2624C0.25 14.3666 0.7375 12.6749 1.7125 11.1874C2.69583 9.69992 3.97917 8.752 5.5625 8.34367C6.0875 6.10756 7.12917 4.29922 8.6875 2.91867C10.2542 1.52839 12.025 0.833252 14 0.833252C16.4417 0.833252 18.5083 1.82492 20.2 3.80825C21.9 5.78186 22.75 8.19297 22.75 11.0416C24.1917 11.236 25.3833 11.9652 26.325 13.2291C27.275 14.4735 27.75 15.9319 27.75 17.6041C27.75 19.4319 27.2042 20.9826 26.1125 22.2562C25.0208 23.5298 23.6917 24.1666 22.125 24.1666H15.25V13.7395L17.25 15.9999L19 13.9583L14 8.12492L9 13.9583L10.75 15.9999L12.75 13.7395V24.1666Z" fill="black"/>
</svg>
