<svg width="24" height="25" viewBox="0 0 24 25" fill="none" xmlns="http://www.w3.org/2000/svg">
<path d="M15.7897 12.5L23.1259 4.90175C24.1724 3.81787 24.1724 2.0606 23.1259 0.976725C22.0794 -0.10715 20.3828 -0.10715 19.3362 0.976725L12 8.57495L4.66379 0.976725C3.61729 -0.10715 1.92061 -0.10715 0.874108 0.976725C-0.172392 2.0606 -0.172392 3.81787 0.874108 4.90175L8.21033 12.5L0.874108 20.0982C-0.172392 21.1821 -0.172392 22.9394 0.874108 24.0232C1.39736 24.5651 2.08314 24.8361 2.76892 24.8361C3.4547 24.8361 4.14054 24.5652 4.66373 24.0232L12 16.425L19.3362 24.0232C19.8595 24.5651 20.5453 24.8361 21.231 24.8361C21.9168 24.8361 22.6026 24.5652 23.1259 24.0232C24.1724 22.9394 24.1724 21.1821 23.1259 20.0982L15.7897 12.5Z" fill="#2B3B47"/>
</svg>
